<svg id="svg" version="1.1" xmlns="http://www.w3.org/2000/svg" xmlns:xlink="http://www.w3.org/1999/xlink" width="400" height="400" viewBox="0, 0, 400,400"><g id="svgg"><path id="path0" d="M0.000 200.000 L 0.000 400.000 200.000 400.000 L 400.000 400.000 400.000 200.000 L 400.000 0.000 200.000 0.000 L 0.000 0.000 0.000 200.000 M219.226 19.214 C 219.945 19.599,220.000 20.116,220.000 26.538 C 220.000 34.836,219.438 33.878,226.800 38.122 C 229.990 39.961,234.670 42.687,237.200 44.179 C 239.730 45.672,242.160 47.055,242.600 47.253 C 243.040 47.450,243.879 47.924,244.465 48.306 C 245.050 48.688,246.580 49.591,247.865 50.314 C 249.149 51.037,250.470 51.790,250.800 51.988 C 256.017 55.120,263.405 59.388,270.207 63.200 C 271.581 63.970,272.958 64.815,273.267 65.078 C 273.576 65.341,274.902 66.119,276.214 66.808 C 278.327 67.917,282.247 70.149,285.800 72.268 C 286.460 72.661,288.111 73.617,289.469 74.392 C 290.826 75.166,296.394 78.365,301.841 81.500 L 311.746 87.200 320.240 87.200 C 324.912 87.200,329.019 87.309,329.367 87.443 C 330.120 87.732,330.304 96.285,329.586 97.626 C 329.180 98.384,328.258 98.400,284.666 98.400 C 250.584 98.400,240.048 98.512,239.680 98.880 C 239.310 99.250,239.200 118.323,239.200 182.293 C 239.200 274.705,239.452 267.136,236.472 264.314 C 235.662 263.547,233.604 262.063,231.897 261.016 C 230.190 259.970,228.660 258.908,228.497 258.657 C 228.334 258.405,228.110 222.290,228.000 178.400 L 227.800 98.600 224.461 98.483 C 222.344 98.409,220.917 98.537,220.561 98.832 C 220.083 99.229,220.000 110.857,220.000 177.369 C 220.000 234.623,219.880 255.560,219.550 255.890 C 218.861 256.579,210.401 256.071,209.500 255.286 C 208.838 254.709,208.800 250.505,208.800 177.564 C 208.800 128.429,208.658 100.080,208.410 99.426 L 208.020 98.400 195.443 98.400 C 188.525 98.400,182.581 98.509,182.233 98.643 C 181.665 98.861,181.600 101.606,181.600 125.563 C 181.600 145.778,181.484 152.356,181.120 152.720 C 180.369 153.471,153.465 153.402,152.839 152.647 C 152.504 152.243,152.380 144.908,152.379 125.447 C 152.379 110.791,152.339 98.758,152.289 98.707 C 152.240 98.655,134.260 98.520,112.333 98.407 C 90.406 98.293,72.316 98.050,72.133 97.868 C 71.568 97.304,71.463 88.447,72.014 87.783 C 72.427 87.286,75.654 87.200,93.998 87.200 C 117.875 87.200,116.619 87.329,121.000 84.426 C 121.880 83.842,123.050 83.149,123.600 82.886 C 124.602 82.405,124.998 82.173,127.600 80.543 C 128.370 80.060,129.929 79.156,131.064 78.533 C 133.113 77.408,138.899 74.068,145.800 70.025 C 147.780 68.865,150.390 67.377,151.600 66.717 C 152.810 66.058,154.070 65.288,154.400 65.006 C 154.730 64.724,156.620 63.638,158.600 62.593 C 160.580 61.548,162.470 60.478,162.800 60.214 C 163.130 59.950,164.390 59.234,165.600 58.622 C 166.810 58.011,168.070 57.286,168.400 57.012 C 168.730 56.738,171.610 55.041,174.800 53.241 C 177.990 51.442,180.870 49.809,181.200 49.614 C 181.530 49.418,185.760 46.972,190.600 44.177 C 195.440 41.382,199.850 38.807,200.400 38.455 C 200.950 38.102,201.760 37.614,202.200 37.369 C 202.640 37.124,203.900 36.425,205.000 35.816 C 208.710 33.761,208.583 34.084,208.727 26.297 C 208.815 21.564,209.003 19.319,209.327 19.113 C 210.045 18.657,218.344 18.742,219.226 19.214 M206.386 47.753 C 205.847 48.262,193.121 55.704,188.000 58.506 C 186.790 59.168,184.900 60.281,183.800 60.979 C 182.700 61.677,181.503 62.360,181.140 62.496 C 180.778 62.632,179.025 63.657,177.245 64.772 C 175.465 65.887,173.852 66.800,173.660 66.800 C 173.468 66.800,172.612 67.276,171.756 67.857 C 170.900 68.439,168.850 69.672,167.200 70.598 C 165.550 71.524,161.010 74.153,157.111 76.441 C 153.211 78.728,149.521 80.872,148.911 81.205 C 142.825 84.519,141.200 85.717,141.200 86.889 C 141.200 87.599,207.459 87.252,208.051 86.539 C 208.909 85.505,208.860 48.135,208.000 47.592 C 207.206 47.090,207.074 47.103,206.386 47.753 M220.481 48.479 C 219.849 49.111,219.785 85.251,220.414 86.426 C 220.829 87.202,285.753 87.714,286.519 86.947 C 287.276 86.191,283.735 83.760,274.800 78.904 C 273.370 78.127,271.300 76.922,270.200 76.226 C 269.100 75.531,267.390 74.538,266.400 74.019 C 265.410 73.501,263.826 72.565,262.880 71.938 C 261.934 71.312,261.020 70.800,260.849 70.800 C 260.677 70.800,259.687 70.237,258.648 69.549 C 257.609 68.860,255.418 67.555,253.780 66.649 C 251.017 65.119,241.347 59.591,238.600 57.970 C 237.940 57.581,235.600 56.224,233.400 54.955 C 231.200 53.686,229.162 52.412,228.871 52.124 C 228.581 51.836,228.131 51.598,227.871 51.596 C 227.612 51.594,226.299 50.894,224.953 50.040 C 221.984 48.156,221.109 47.851,220.481 48.479 M158.267 98.667 C 157.470 99.463,157.993 123.168,158.817 123.609 C 160.162 124.329,175.527 123.963,176.009 123.200 C 176.598 122.266,176.515 99.475,175.920 98.880 C 175.401 98.361,158.774 98.160,158.267 98.667 M157.882 128.709 C 156.768 129.940,156.858 147.566,157.984 148.585 C 159.215 149.700,160.673 149.118,161.217 147.296 C 161.774 145.431,161.586 129.420,161.000 128.847 C 160.139 128.006,158.581 127.936,157.882 128.709 M166.500 128.412 C 165.224 128.925,165.069 147.396,166.331 148.538 C 169.208 151.141,170.063 148.650,169.921 138.087 C 169.782 127.766,169.573 127.177,166.500 128.412 M174.576 128.567 C 173.853 129.095,173.792 129.766,173.679 138.367 L 173.558 147.599 174.629 148.592 L 175.699 149.584 176.850 148.765 L 178.000 147.946 178.000 138.363 L 178.000 128.780 176.974 128.390 C 175.641 127.883,175.498 127.894,174.576 128.567 M115.120 140.080 C 115.942 140.902,115.795 168.640,114.967 168.957 C 113.736 169.430,88.497 169.227,87.419 168.736 L 86.400 168.272 86.400 154.751 C 86.400 141.358,86.408 141.224,87.275 140.416 C 88.338 139.426,114.155 139.115,115.120 140.080 M146.720 139.844 C 148.742 140.248,148.828 140.926,148.666 155.200 L 148.519 168.200 147.559 168.694 C 146.128 169.431,121.277 169.385,120.300 168.643 C 119.293 167.879,119.222 141.918,120.223 140.489 C 120.849 139.595,142.801 139.060,146.720 139.844 M91.973 144.427 C 91.254 145.146,91.200 145.841,91.200 154.311 C 91.200 164.005,91.419 165.200,93.194 165.200 C 95.119 165.200,95.221 164.609,95.107 154.093 L 95.000 144.257 93.873 143.956 C 93.015 143.727,92.560 143.840,91.973 144.427 M109.400 143.916 C 108.071 144.209,108.012 144.654,108.006 154.438 C 108.000 164.469,108.140 165.200,110.070 165.200 C 111.926 165.200,112.193 163.993,112.321 155.041 C 112.466 144.915,112.051 143.332,109.400 143.916 M142.400 143.907 C 140.919 144.364,140.800 145.148,140.800 154.476 C 140.800 164.119,141.015 165.200,142.930 165.200 C 144.904 165.200,145.200 163.835,145.195 154.774 C 145.188 144.363,144.874 143.142,142.400 143.907 M99.990 145.026 C 99.295 146.855,99.493 163.269,100.223 164.311 C 100.979 165.391,102.047 165.453,102.938 164.469 C 103.785 163.533,103.951 145.311,103.120 144.480 C 102.224 143.584,100.419 143.898,99.990 145.026 M124.814 144.774 C 124.089 146.128,124.272 163.239,125.023 164.311 C 125.769 165.376,127.110 165.466,127.843 164.500 C 128.571 163.541,128.642 145.202,127.920 144.480 C 127.159 143.719,125.283 143.897,124.814 144.774 M133.067 144.267 C 132.435 144.898,132.774 163.917,133.429 164.571 C 134.341 165.484,135.414 165.343,136.154 164.214 C 136.905 163.068,137.121 146.896,136.410 145.026 C 136.027 144.020,133.816 143.518,133.067 144.267 M115.400 187.200 L 115.400 201.400 101.447 201.505 C 91.483 201.580,87.338 201.481,86.947 201.156 C 86.067 200.426,86.149 174.308,87.034 173.423 C 87.592 172.865,89.322 172.802,101.534 172.895 L 115.400 173.000 115.400 187.200 M148.169 173.700 C 148.818 174.694,148.912 200.092,148.271 201.100 C 147.821 201.807,120.786 201.826,120.080 201.120 C 119.240 200.280,119.410 174.473,120.262 173.531 C 120.878 172.851,121.848 172.800,134.253 172.800 L 147.582 172.800 148.169 173.700 M181.186 173.574 C 181.809 174.738,181.747 200.493,181.120 201.120 C 180.432 201.808,153.568 201.808,152.880 201.120 C 152.040 200.280,152.210 174.473,153.062 173.531 C 154.117 172.366,180.561 172.406,181.186 173.574 M92.000 177.200 C 90.749 178.451,90.767 195.967,92.020 197.220 C 92.866 198.066,94.278 197.980,94.894 197.046 C 95.056 196.801,95.191 192.231,95.194 186.890 L 95.200 177.180 94.174 176.790 C 92.847 176.286,92.930 176.270,92.000 177.200 M109.400 176.716 C 108.071 177.009,108.012 177.456,108.012 187.200 C 108.012 192.370,108.144 196.801,108.306 197.046 C 108.981 198.071,110.367 198.069,111.393 197.043 L 112.400 196.036 112.400 187.644 C 112.400 177.627,111.993 176.145,109.400 176.716 M125.034 177.273 C 124.100 178.606,124.090 195.780,125.023 197.111 C 125.779 198.191,126.847 198.253,127.738 197.269 C 128.603 196.313,128.751 177.979,127.900 177.298 C 126.731 176.363,125.678 176.353,125.034 177.273 M133.700 176.812 C 132.801 177.174,132.800 177.186,132.806 186.887 C 132.813 197.204,132.841 197.394,134.440 197.796 C 136.604 198.339,136.857 197.113,136.721 186.750 C 136.583 176.238,136.425 175.717,133.700 176.812 M142.400 176.707 C 140.919 177.164,140.800 177.948,140.800 187.276 C 140.800 196.919,141.015 198.000,142.930 198.000 C 144.904 198.000,145.200 196.635,145.195 187.574 C 145.188 177.163,144.874 175.942,142.400 176.707 M157.906 177.112 C 157.038 178.157,156.967 195.672,157.825 196.982 C 158.661 198.258,159.369 198.267,160.618 197.018 L 161.600 196.036 161.560 187.518 C 161.538 182.833,161.397 178.556,161.245 178.013 C 160.897 176.765,158.690 176.169,157.906 177.112 M166.912 176.830 C 165.639 177.311,165.562 178.011,165.687 187.985 L 165.800 196.970 166.923 197.585 C 169.477 198.983,170.000 197.286,170.000 187.604 C 170.000 177.543,169.514 175.847,166.912 176.830 M174.600 177.029 C 172.323 178.748,173.452 198.000,175.829 198.000 C 177.792 198.000,178.000 196.966,178.000 187.200 C 178.000 176.516,177.452 174.877,174.600 177.029 M99.990 177.826 C 99.295 179.655,99.493 196.069,100.223 197.111 C 100.979 198.191,102.047 198.253,102.938 197.269 C 103.785 196.333,103.951 178.111,103.120 177.280 C 102.224 176.384,100.419 176.698,99.990 177.826 M183.826 209.020 C 190.495 220.944,191.859 244.629,186.497 255.400 C 185.337 257.731,185.292 257.736,182.600 255.815 C 179.676 253.728,176.995 252.254,174.897 251.578 C 174.074 251.313,173.220 250.956,173.000 250.785 C 172.780 250.614,171.564 250.283,170.299 250.050 C 169.033 249.817,167.622 249.426,167.163 249.180 C 164.690 247.857,150.417 248.000,145.989 249.392 C 139.484 251.438,137.926 252.074,134.548 254.061 C 126.515 258.787,119.036 267.941,117.177 275.324 C 116.547 277.826,116.482 277.856,110.947 278.139 C 108.278 278.276,105.183 278.584,104.068 278.823 C 99.750 279.749,91.753 272.229,85.730 261.580 C 83.540 257.710,82.749 255.781,80.485 248.800 C 76.531 236.603,79.405 215.116,86.091 206.900 C 86.412 206.505,96.568 206.400,134.429 206.400 L 182.361 206.400 183.826 209.020 M167.400 255.466 C 174.182 257.488,181.132 261.223,184.400 264.603 C 187.558 267.868,187.561 267.868,192.716 265.318 C 221.495 251.084,253.880 276.495,247.238 308.099 C 246.335 312.397,246.398 312.839,248.379 316.000 C 251.924 321.659,253.373 327.358,253.360 335.600 C 253.349 342.571,253.284 342.921,250.691 350.000 C 247.408 358.960,237.179 368.785,228.400 371.409 C 227.190 371.771,225.570 372.318,224.800 372.624 C 217.169 375.658,203.177 373.334,194.361 367.567 C 190.667 365.151,190.744 365.133,186.600 369.382 C 169.455 386.963,140.368 384.331,127.121 364.000 C 124.945 360.660,124.366 360.254,122.233 360.574 C 116.750 361.396,110.157 360.677,102.959 358.470 C 89.686 354.401,78.400 337.892,78.400 322.544 C 78.400 310.132,85.746 296.319,95.489 290.411 C 98.511 288.579,103.002 286.356,104.321 286.040 C 105.135 285.846,106.880 285.394,108.200 285.037 C 109.520 284.679,112.730 284.271,115.334 284.130 C 120.973 283.824,121.019 283.795,122.718 279.400 C 126.360 269.984,133.601 261.956,141.511 258.565 C 142.770 258.025,144.250 257.337,144.800 257.035 C 149.052 254.702,161.857 253.813,167.400 255.466 " stroke="none" fill="#ffffff" fill-rule="evenodd"></path><path id="path1" d="M209.327 19.113 C 209.003 19.319,208.815 21.564,208.727 26.297 C 208.583 34.084,208.710 33.761,205.000 35.816 C 203.900 36.425,202.640 37.124,202.200 37.369 C 201.760 37.614,200.950 38.102,200.400 38.455 C 199.850 38.807,195.440 41.382,190.600 44.177 C 185.760 46.972,181.530 49.418,181.200 49.614 C 180.870 49.809,177.990 51.442,174.800 53.241 C 171.610 55.041,168.730 56.738,168.400 57.012 C 168.070 57.286,166.810 58.011,165.600 58.622 C 164.390 59.234,163.130 59.950,162.800 60.214 C 162.470 60.478,160.580 61.548,158.600 62.593 C 156.620 63.638,154.730 64.724,154.400 65.006 C 154.070 65.288,152.810 66.058,151.600 66.717 C 150.390 67.377,147.780 68.865,145.800 70.025 C 138.899 74.068,133.113 77.408,131.064 78.533 C 129.929 79.156,128.370 80.060,127.600 80.543 C 124.998 82.173,124.602 82.405,123.600 82.886 C 123.050 83.149,121.880 83.842,121.000 84.426 C 116.619 87.329,117.875 87.200,93.998 87.200 C 75.654 87.200,72.427 87.286,72.014 87.783 C 71.463 88.447,71.568 97.304,72.133 97.868 C 72.316 98.050,90.406 98.293,112.333 98.407 C 134.260 98.520,152.240 98.655,152.289 98.707 C 152.339 98.758,152.379 110.791,152.379 125.447 C 152.380 144.908,152.504 152.243,152.839 152.647 C 153.465 153.402,180.369 153.471,181.120 152.720 C 181.484 152.356,181.600 145.778,181.600 125.563 C 181.600 101.606,181.665 98.861,182.233 98.643 C 182.581 98.509,188.525 98.400,195.443 98.400 L 208.020 98.400 208.410 99.426 C 208.658 100.080,208.800 128.429,208.800 177.564 C 208.800 250.505,208.838 254.709,209.500 255.286 C 210.401 256.071,218.861 256.579,219.550 255.890 C 219.880 255.560,220.000 234.623,220.000 177.369 C 220.000 110.857,220.083 99.229,220.561 98.832 C 220.917 98.537,222.344 98.409,224.461 98.483 L 227.800 98.600 228.000 178.400 C 228.110 222.290,228.334 258.405,228.497 258.657 C 228.660 258.908,230.190 259.970,231.897 261.016 C 233.604 262.063,235.662 263.547,236.472 264.314 C 239.452 267.136,239.200 274.705,239.200 182.293 C 239.200 118.323,239.310 99.250,239.680 98.880 C 240.048 98.512,250.584 98.400,284.666 98.400 C 328.258 98.400,329.180 98.384,329.586 97.626 C 330.304 96.285,330.120 87.732,329.367 87.443 C 329.019 87.309,324.912 87.200,320.240 87.200 L 311.746 87.200 301.841 81.500 C 296.394 78.365,290.826 75.166,289.469 74.392 C 288.111 73.617,286.460 72.661,285.800 72.268 C 282.247 70.149,278.327 67.917,276.214 66.808 C 274.902 66.119,273.576 65.341,273.267 65.078 C 272.958 64.815,271.581 63.970,270.207 63.200 C 263.405 59.388,256.017 55.120,250.800 51.988 C 250.470 51.790,249.149 51.037,247.865 50.314 C 246.580 49.591,245.050 48.688,244.465 48.306 C 243.879 47.924,243.040 47.450,242.600 47.253 C 242.160 47.055,239.730 45.672,237.200 44.179 C 234.670 42.687,229.990 39.961,226.800 38.122 C 219.438 33.878,220.000 34.836,220.000 26.538 C 220.000 20.116,219.945 19.599,219.226 19.214 C 218.344 18.742,210.045 18.657,209.327 19.113 M208.000 47.592 C 208.860 48.135,208.909 85.505,208.051 86.539 C 207.459 87.252,141.200 87.599,141.200 86.889 C 141.200 85.717,142.825 84.519,148.911 81.205 C 149.521 80.872,153.211 78.728,157.111 76.441 C 161.010 74.153,165.550 71.524,167.200 70.598 C 168.850 69.672,170.900 68.439,171.756 67.857 C 172.612 67.276,173.468 66.800,173.660 66.800 C 173.852 66.800,175.465 65.887,177.245 64.772 C 179.025 63.657,180.778 62.632,181.140 62.496 C 181.503 62.360,182.700 61.677,183.800 60.979 C 184.900 60.281,186.790 59.168,188.000 58.506 C 193.121 55.704,205.847 48.262,206.386 47.753 C 207.074 47.103,207.206 47.090,208.000 47.592 M224.953 50.040 C 226.299 50.894,227.612 51.594,227.871 51.596 C 228.131 51.598,228.581 51.836,228.871 52.124 C 229.162 52.412,231.200 53.686,233.400 54.955 C 235.600 56.224,237.940 57.581,238.600 57.970 C 241.347 59.591,251.017 65.119,253.780 66.649 C 255.418 67.555,257.609 68.860,258.648 69.549 C 259.687 70.237,260.677 70.800,260.849 70.800 C 261.020 70.800,261.934 71.312,262.880 71.938 C 263.826 72.565,265.410 73.501,266.400 74.019 C 267.390 74.538,269.100 75.531,270.200 76.226 C 271.300 76.922,273.370 78.127,274.800 78.904 C 283.735 83.760,287.276 86.191,286.519 86.947 C 285.753 87.714,220.829 87.202,220.414 86.426 C 219.785 85.251,219.849 49.111,220.481 48.479 C 221.109 47.851,221.984 48.156,224.953 50.040 M175.920 98.880 C 176.515 99.475,176.598 122.266,176.009 123.200 C 175.527 123.963,160.162 124.329,158.817 123.609 C 157.993 123.168,157.470 99.463,158.267 98.667 C 158.774 98.160,175.401 98.361,175.920 98.880 M161.000 128.847 C 161.586 129.420,161.774 145.431,161.217 147.296 C 160.673 149.118,159.215 149.700,157.984 148.585 C 156.858 147.566,156.768 129.940,157.882 128.709 C 158.581 127.936,160.139 128.006,161.000 128.847 M169.024 128.567 C 170.292 129.494,170.438 146.535,169.192 148.120 C 168.217 149.359,167.375 149.482,166.331 148.538 C 165.069 147.396,165.224 128.925,166.500 128.412 C 167.772 127.901,168.143 127.924,169.024 128.567 M176.974 128.390 L 178.000 128.780 178.000 138.363 L 178.000 147.946 176.850 148.765 L 175.699 149.584 174.629 148.592 L 173.558 147.599 173.679 138.367 C 173.818 127.740,173.980 127.252,176.974 128.390 M87.275 140.416 C 86.408 141.224,86.400 141.358,86.400 154.751 L 86.400 168.272 87.419 168.736 C 88.497 169.227,113.736 169.430,114.967 168.957 C 115.795 168.640,115.942 140.902,115.120 140.080 C 114.155 139.115,88.338 139.426,87.275 140.416 M120.223 140.489 C 119.222 141.918,119.293 167.879,120.300 168.643 C 121.277 169.385,146.128 169.431,147.559 168.694 L 148.519 168.200 148.666 155.200 C 148.828 140.926,148.742 140.248,146.720 139.844 C 142.801 139.060,120.849 139.595,120.223 140.489 M95.107 154.093 C 95.221 164.609,95.119 165.200,93.194 165.200 C 91.419 165.200,91.200 164.005,91.200 154.311 C 91.200 144.064,91.399 143.295,93.873 143.956 L 95.000 144.257 95.107 154.093 M112.041 145.507 C 112.828 147.577,112.323 163.382,111.438 164.359 C 110.520 165.372,109.712 165.425,108.731 164.538 C 107.965 163.844,107.578 145.671,108.306 144.546 C 109.147 143.249,111.403 143.829,112.041 145.507 M144.961 145.349 C 145.703 148.115,145.195 163.353,144.330 164.274 C 143.264 165.409,142.638 165.438,141.600 164.400 C 140.611 163.411,140.345 145.927,141.300 144.722 C 142.367 143.377,144.531 143.747,144.961 145.349 M103.120 144.480 C 103.951 145.311,103.785 163.533,102.938 164.469 C 102.047 165.453,100.979 165.391,100.223 164.311 C 99.493 163.269,99.295 146.855,99.990 145.026 C 100.419 143.898,102.224 143.584,103.120 144.480 M127.920 144.480 C 128.642 145.202,128.571 163.541,127.843 164.500 C 127.110 165.466,125.769 165.376,125.023 164.311 C 124.272 163.239,124.089 146.128,124.814 144.774 C 125.283 143.897,127.159 143.719,127.920 144.480 M136.410 145.026 C 137.121 146.896,136.905 163.068,136.154 164.214 C 135.414 165.343,134.341 165.484,133.429 164.571 C 132.774 163.917,132.435 144.898,133.067 144.267 C 133.816 143.518,136.027 144.020,136.410 145.026 M87.034 173.423 C 86.149 174.308,86.067 200.426,86.947 201.156 C 87.338 201.481,91.483 201.580,101.447 201.505 L 115.400 201.400 115.400 187.200 L 115.400 173.000 101.534 172.895 C 89.322 172.802,87.592 172.865,87.034 173.423 M120.262 173.531 C 119.410 174.473,119.240 200.280,120.080 201.120 C 120.786 201.826,147.821 201.807,148.271 201.100 C 148.912 200.092,148.818 174.694,148.169 173.700 L 147.582 172.800 134.253 172.800 C 121.848 172.800,120.878 172.851,120.262 173.531 M153.062 173.531 C 152.210 174.473,152.040 200.280,152.880 201.120 C 153.568 201.808,180.432 201.808,181.120 201.120 C 181.747 200.493,181.809 174.738,181.186 173.574 C 180.561 172.406,154.117 172.366,153.062 173.531 M94.174 176.790 L 95.200 177.180 95.194 186.890 C 95.187 197.028,95.148 197.321,93.720 197.767 C 91.471 198.468,91.200 197.331,91.200 187.200 C 91.200 176.554,91.431 175.747,94.174 176.790 M112.019 178.250 C 112.229 178.801,112.400 183.029,112.400 187.644 L 112.400 196.036 111.393 197.043 C 110.367 198.069,108.981 198.071,108.306 197.046 C 108.144 196.801,108.012 192.370,108.012 187.200 C 108.012 182.030,108.144 177.596,108.306 177.346 C 109.132 176.071,111.401 176.624,112.019 178.250 M127.900 177.298 C 128.751 177.979,128.603 196.313,127.738 197.269 C 125.181 200.094,124.400 197.737,124.400 187.200 C 124.400 176.406,124.926 174.918,127.900 177.298 M135.824 176.967 C 136.958 177.796,137.250 195.341,136.157 197.010 C 135.441 198.102,133.788 198.133,133.110 197.068 C 132.239 195.699,132.778 177.183,133.700 176.812 C 134.922 176.321,134.941 176.323,135.824 176.967 M144.961 178.149 C 145.703 180.915,145.195 196.153,144.330 197.074 C 143.264 198.209,142.638 198.238,141.600 197.200 C 140.611 196.211,140.345 178.727,141.300 177.522 C 142.367 176.177,144.531 176.547,144.961 178.149 M161.245 178.013 C 161.397 178.556,161.538 182.833,161.560 187.518 L 161.600 196.036 160.618 197.018 C 159.369 198.267,158.661 198.258,157.825 196.982 C 156.967 195.672,157.038 178.157,157.906 177.112 C 158.690 176.169,160.897 176.765,161.245 178.013 M169.619 178.250 C 170.558 180.720,170.079 195.865,169.023 197.078 C 168.086 198.155,168.002 198.175,166.923 197.585 L 165.800 196.970 165.687 187.985 C 165.625 183.043,165.675 178.587,165.799 178.083 C 166.273 176.151,168.864 176.265,169.619 178.250 M177.200 177.200 C 179.377 179.377,178.149 198.000,175.829 198.000 C 173.452 198.000,172.323 178.748,174.600 177.029 C 175.679 176.215,176.252 176.252,177.200 177.200 M103.120 177.280 C 103.951 178.111,103.785 196.333,102.938 197.269 C 102.047 198.253,100.979 198.191,100.223 197.111 C 99.493 196.069,99.295 179.655,99.990 177.826 C 100.419 176.698,102.224 176.384,103.120 177.280 M86.091 206.900 C 79.405 215.116,76.531 236.603,80.485 248.800 C 82.749 255.781,83.540 257.710,85.730 261.580 C 91.753 272.229,99.750 279.749,104.068 278.823 C 105.183 278.584,108.278 278.276,110.947 278.139 C 116.482 277.856,116.547 277.826,117.177 275.324 C 119.036 267.941,126.515 258.787,134.548 254.061 C 137.926 252.074,139.484 251.438,145.989 249.392 C 150.417 248.000,164.690 247.857,167.163 249.180 C 167.622 249.426,169.033 249.817,170.299 250.050 C 171.564 250.283,172.780 250.614,173.000 250.785 C 173.220 250.956,174.074 251.313,174.897 251.578 C 176.995 252.254,179.676 253.728,182.600 255.815 C 185.292 257.736,185.337 257.731,186.497 255.400 C 191.859 244.629,190.495 220.944,183.826 209.020 L 182.361 206.400 134.429 206.400 C 96.568 206.400,86.412 206.505,86.091 206.900 M154.000 254.793 C 150.786 255.079,146.430 256.141,144.800 257.035 C 144.250 257.337,142.770 258.025,141.511 258.565 C 133.601 261.956,126.360 269.984,122.718 279.400 C 121.019 283.795,120.973 283.824,115.334 284.130 C 112.730 284.271,109.520 284.679,108.200 285.037 C 106.880 285.394,105.135 285.846,104.321 286.040 C 103.002 286.356,98.511 288.579,95.489 290.411 C 78.455 300.739,73.283 326.486,84.800 343.616 C 89.255 350.243,97.128 356.683,102.959 358.470 C 110.157 360.677,116.750 361.396,122.233 360.574 C 124.366 360.254,124.945 360.660,127.121 364.000 C 140.368 384.331,169.455 386.963,186.600 369.382 C 190.744 365.133,190.667 365.151,194.361 367.567 C 203.177 373.334,217.169 375.658,224.800 372.624 C 225.570 372.318,227.190 371.771,228.400 371.409 C 237.179 368.785,247.408 358.960,250.691 350.000 C 253.284 342.921,253.349 342.571,253.360 335.600 C 253.373 327.358,251.924 321.659,248.379 316.000 C 246.398 312.839,246.335 312.397,247.238 308.099 C 253.880 276.495,221.495 251.084,192.716 265.318 C 187.561 267.868,187.558 267.868,184.400 264.603 C 181.132 261.223,174.182 257.488,167.400 255.466 C 165.032 254.760,158.220 254.418,154.000 254.793 " stroke="none" fill="#38daff" fill-rule="evenodd"></path></g></svg>